<?xml version="1.0" encoding="utf-8"?><svg version="1.1" id="Layer_1" xmlns="http://www.w3.org/2000/svg" xmlns:xlink="http://www.w3.org/1999/xlink" x="0px" y="0px" viewBox="0 0 105.24 122.88" style="enable-background:new 0 0 105.24 122.88" xml:space="preserve"><style type="text/css">.st0{fill-rule:evenodd;clip-rule:evenodd;}</style><g><path class="st0" d="M43.26,20.55c-0.62,0.02-1.09,0.15-1.41,0.37c-0.18,0.12-0.32,0.28-0.4,0.47c-0.1,0.21-0.14,0.46-0.13,0.75 c0.02,0.85,0.47,1.96,1.33,3.24l0.01,0.02l2.79,4.44c1.12,1.78,2.29,3.6,3.75,4.93c1.4,1.28,3.11,2.15,5.36,2.16 c2.44,0.01,4.22-0.9,5.67-2.25c1.5-1.41,2.69-3.34,3.86-5.27l3.15-5.18c0.59-1.34,0.8-2.23,0.67-2.76 c-0.08-0.31-0.42-0.47-1.01-0.5c-0.13-0.01-0.25-0.01-0.38,0c-0.14,0-0.29,0.01-0.44,0.03c-0.08,0.01-0.17,0-0.24-0.02 c-0.28,0.02-0.57,0-0.86-0.05l1.08-4.77c-7.99,1.26-13.97-4.68-22.42-1.19l0.61,5.62C43.89,20.6,43.56,20.59,43.26,20.55 L43.26,20.55L43.26,20.55L43.26,20.55z M53.15,90.75c4.18,0,7.57,3.39,7.57,7.57c0,4.18-3.39,7.57-7.57,7.57 c-4.18,0-7.57-3.39-7.57-7.57C45.58,94.14,48.97,90.75,53.15,90.75L53.15,90.75z M11.75,63.27c-0.13,0.02-0.27,0.03-0.4,0.03 c-0.14,0-0.27-0.01-0.4-0.03H5.42c-0.07,0-0.13,0.02-0.18,0.05L5.2,63.37c-0.06,0.06-0.1,0.14-0.1,0.22v12.38 c0,0.07,0.02,0.13,0.05,0.18l0.04,0.04c0.06,0.06,0.14,0.1,0.22,0.1h6.86c0.11-0.02,0.23-0.02,0.35-0.02s0.23,0.01,0.35,0.02h80.54 c0.11-0.02,0.23-0.02,0.35-0.02c0.12,0,0.23,0.01,0.35,0.02h5.6c0.09,0,0.17-0.03,0.23-0.09c0.06-0.06,0.09-0.14,0.09-0.23V63.59 c0-0.08-0.04-0.16-0.1-0.22c-0.06-0.06-0.14-0.1-0.22-0.1H11.75L11.75,63.27L11.75,63.27z M24.74,58.17 c-0.08-0.26-0.13-0.53-0.16-0.83c0.1-7.81-1.1-9.27,7.13-13.86c3.01-1.68,10.78-2.25,14.17-4.47c0.52-0.97,1.09-2.72,1.44-3.76 l0.03-0.1c-1.24-1.34-2.26-2.92-3.24-4.47l-2.79-4.44c-1.02-1.52-1.55-2.92-1.58-4.06c-0.02-0.54,0.08-1.03,0.27-1.45 c0.21-0.45,0.53-0.82,0.96-1.11c0.2-0.14,0.43-0.25,0.68-0.35c-0.18-2.41-0.25-5.44-0.13-7.98c0.06-0.6,0.18-1.21,0.34-1.81 c1.02-3.65,4.16-6.28,7.75-7.52c1.74-0.6,1.07-2.03,2.83-1.94c4.17,0.23,10.6,2.91,13.07,5.76c3.46,3.99,2.57,8.91,2.45,13.78v0 c0.77,0.24,1.27,0.73,1.47,1.52c0.22,0.88-0.02,2.12-0.77,3.81l0,0c-0.01,0.03-0.03,0.06-0.05,0.09l-3.18,5.24 c-1.23,2.02-2.47,4.05-4.13,5.6l-0.08,0.08c0.16,0.23,0.33,0.48,0.51,0.75c0.55,0.81,1.18,1.73,1.76,2.45 c3.46,2.15,11.07,2.73,14.04,4.39c7.57,4.22,5.7,6.48,6.24,13.86c-0.03,0.3-0.08,0.58-0.16,0.83h16.19c1.49,0,2.85,0.61,3.83,1.59 c0.98,0.98,1.59,2.34,1.59,3.83v12.38c0,1.49-0.61,2.84-1.59,3.82l-0.01,0.01c-0.98,0.98-2.33,1.59-3.82,1.59h-3.4v37.37 c0,1.13-0.46,2.16-1.21,2.91c-0.74,0.74-1.77,1.21-2.91,1.21h-78.1c-1.14,0-2.17-0.46-2.92-1.21c-0.07-0.07-0.14-0.14-0.2-0.22 c-0.63-0.72-1.01-1.67-1.01-2.7V81.39H5.42c-1.49,0-2.85-0.61-3.83-1.59c-0.06-0.06-0.12-0.12-0.17-0.19 C0.54,78.65,0,77.37,0,75.97V63.59c0-1.49,0.61-2.85,1.59-3.83c0.06-0.06,0.13-0.12,0.2-0.18c0.97-0.88,2.24-1.41,3.63-1.41 C11.86,58.17,18.3,58.17,24.74,58.17L24.74,58.17z M15.18,81.39v36.38h76.13V81.39H15.18L15.18,81.39z M48.88,43.96 c-1.41-1.6-1.53-3.28,0-5.06c1.77,0.45,3.38,1.21,4.87,2.24c0.32-0.14,0.69-0.2,1.06-0.17c1.55-1.1,3.53-1.54,5.25-2.37 c2.06,2.01,1.84,3.86-0.19,5.58c-1.13-0.26-2.21-0.66-3.24-1.18c-0.03,0.26-0.1,0.55-0.22,0.87l2.25,10.69 c1.72-3.6,3.5-9.33,3.95-13.98c-0.75-0.84-1.55-2.01-2.23-3.02c-0.15-0.23-0.3-0.44-0.44-0.65c-1.46,0.98-3.2,1.59-5.38,1.58 c-2.43-0.01-4.31-0.84-5.88-2.11c-0.44,1.32-1.09,3.12-1.71,3.99c-0.05,0.06-0.1,0.12-0.16,0.17c0.82,5.06,2.59,10.55,4.2,14.03 l2.25-10.69c-0.33-0.55-0.46-1.03-0.44-1.43C51.6,43.18,50.27,43.65,48.88,43.96L48.88,43.96L48.88,43.96z"/></g></svg>